<?xml version="1.0" encoding="utf-8"?>
<!-- Generator: Adobe Illustrator 25.4.1, SVG Export Plug-In . SVG Version: 6.00 Build 0)  -->
<svg version="1.1" id="Ebene_1" xmlns="http://www.w3.org/2000/svg" xmlns:xlink="http://www.w3.org/1999/xlink" x="0px" y="0px"
	 viewBox="0 0 300 275" style="enable-background:new 0 0 300 275;" xml:space="preserve">
<style type="text/css">
	.st0{opacity:0.49;fill:#33CCFF;enable-background:new    ;}
	.st1{opacity:0.38;fill:#33CCFF;enable-background:new    ;}
	.st2{fill:url(#SVGID_1_);}
</style>
<g>
	<g>
		<path class="st0" d="M0,187.5v25c0,0,0,37.5,50,50S300,225,300,225v-37.5H0z"/>
	</g>
	<g>
		<path class="st0" d="M300,237.5c0,0-12.5,37.5-50,37.5s-128.9-37.5-188.6-75s134.2,0,134.2,0L300,237.5z"/>
	</g>
	<g>
		<path class="st1" d="M0,200v12.5c32.6,26.1,71.3,43.3,112.5,50c73.6,11.7,130.6-14.9,150-25L300,200H0z"/>
	</g>
	<g>
		
			<linearGradient id="SVGID_1_" gradientUnits="userSpaceOnUse" x1="13.7391" y1="92.3019" x2="303.9591" y2="230.4119" gradientTransform="matrix(1 0 0 -1 0 276)">
			<stop  offset="0" style="stop-color:#03769C"/>
			<stop  offset="0.4101" style="stop-color:#369DBF"/>
			<stop  offset="1" style="stop-color:#33CCFF"/>
		</linearGradient>
		<path class="st2" d="M0,0v212.5c0,0,62.5-12.5,150,25s150,0,150,0V0H0z"/>
	</g>
</g>
</svg>
