<?xml version="1.0" encoding="utf-8"?>
<!-- Generator: Adobe Illustrator 24.0.1, SVG Export Plug-In . SVG Version: 6.00 Build 0)  -->
<svg version="1.1" id="Ebene_1" xmlns="http://www.w3.org/2000/svg" xmlns:xlink="http://www.w3.org/1999/xlink" x="0px" y="0px"
	 viewBox="0 0 2169.2 700.3" style="enable-background:new 0 0 2169.2 700.3;" xml:space="preserve">
<style type="text/css">
	.st0{fill:none;}
	.st1{fill:#3EB8EB;}
</style>
<g>
	<rect x="23.7" y="37.6" class="st0" width="1579.9" height="500"/>
	<path d="M101.5,235.6c33.2-34.1,72.5-51.1,118.1-51.1c26.2,0,50.6,5.6,73.3,16.9s38.9,22.5,48.7,33.7l14.7,16.1L321.1,286
		c-0.9-1.4-2.3-3.3-4.1-5.8s-5.9-7.1-12.1-13.7s-13-12.4-20.3-17.3s-16.7-9.3-28.4-13.2s-23.8-5.8-36.6-5.8
		c-32.1,0-60,12.5-83.6,37.4s-35.4,55.6-35.4,91.9s11.8,67,35.4,91.9s51.4,37.4,83.6,37.4c19.6,0,38.2-4.7,55.7-14
		s30.3-18.7,38.3-28l11.3-13.7l34.9,31.4c-1.4,1.8-3.5,4.4-6.3,7.7s-8.8,8.9-17.9,16.7s-18.7,14.8-28.7,20.8
		c-10,6-23,11.6-38.8,16.7s-32,7.7-48.4,7.7c-45.8,0-85.2-17-118.3-51.1s-49.6-75.4-49.6-123.9S68.3,269.7,101.5,235.6z"/>
	<path d="M462.1,235.3c33.4-33.8,73.9-50.8,121.5-50.8s88.1,16.9,121.3,50.8s49.9,75.3,49.9,124.4s-16.6,90.5-49.9,124.2
		s-73.7,50.6-121.3,50.6s-88.1-16.9-121.5-50.6S412,408.8,412,359.7S428.7,269.1,462.1,235.3z M669.9,267.7
		c-24-25-52.9-37.4-86.5-37.4s-62.4,12.5-86.5,37.4s-36.1,55.5-36.1,91.8c0,36,12,66.6,36.1,91.8s52.9,37.8,86.5,37.8
		s62.4-12.5,86.5-37.4S706,396,706,359.7S693.9,292.7,669.9,267.7z"/>
	<path d="M1097.7,37.5h48.9v490.1h-48.9V475c-0.9,1.4-2.5,3.5-4.8,6.3c-2.3,2.8-7.2,7.7-14.7,14.5s-15.6,12.9-24.3,18.3
		c-8.7,5.4-19.8,10.1-33.3,14.2c-13.6,4.1-27.5,6.2-41.9,6.2c-42.8,0-80.4-17.1-112.6-51.4s-48.4-75.4-48.4-123.4
		s16.1-89.2,48.4-123.6s69.8-51.6,112.6-51.6c14.4,0,28.2,2.1,41.5,6.3c13.3,4.2,24.6,9.1,33.7,14.7c9.1,5.6,17,11.3,23.8,17.3
		s11.8,10.9,15.2,15l4.8,6.5V37.5z M1060.9,269.1c-24.5-25.9-51.9-38.8-82.2-38.8c-28.9,0-54.9,12.6-77.8,37.8s-34.4,55.7-34.4,91.6
		s11.5,66.4,34.4,91.6s48.8,37.8,77.8,37.8c30.3,0,57.7-12.9,82.2-38.8s36.7-56.1,36.7-90.6S1085.4,295,1060.9,269.1z"/>
	<path d="M1286.3,377.3c1.8,30.3,14.3,56.5,37.4,78.6c23.1,22.1,50.3,33.2,81.5,33.2c21,0,40.4-4.7,58.4-14
		c18-9.3,30.8-18.7,38.3-28l12-13.7l31.4,31.4c-1.4,1.8-3.4,4.4-6,7.7c-2.6,3.3-8.3,8.9-17.1,16.7c-8.8,7.9-18.2,14.8-28.4,20.8
		c-10.1,6-23.2,11.6-39.3,16.7s-32.5,7.7-49.4,7.7c-45.8,0-85.2-17-118.3-51.1s-49.6-75.4-49.6-123.9s16.3-89.8,49-123.9
		s71.2-51.1,115.4-51.1c45.8,0,84.1,15.9,114.8,47.7s46.1,71.9,46.1,120.5l-3.4,25.3L1286.3,377.3z M1324.9,261.4
		c-21.9,20.7-34.8,45.3-38.6,73.8H1514c-3.6-30.3-15.9-55.4-36.7-75.2s-46-29.7-75.4-29.7S1346.8,240.7,1324.9,261.4z"/>
</g>
<g>
	<rect x="1516.5" y="37.4" class="st0" width="609.7" height="632.3"/>
	<path class="st1" d="M2132.2,37.4l-22.4,108.1l-358.2,522.1h-144.1l349.4-508.4h-281.7l25-121.7H2132.2z"/>
</g>
<g>
</g>
<g>
</g>
<g>
</g>
<g>
</g>
<g>
</g>
<g>
</g>
</svg>
